<?xml version="1.0" encoding="UTF-8" ?>
<!DOCTYPE svg PUBLIC "-//W3C//DTD SVG 1.1//EN" "http://www.w3.org/Graphics/SVG/1.1/DTD/svg11.dtd">
<svg width="225pt" height="225pt" viewBox="0 0 225 225" version="1.1" xmlns="http://www.w3.org/2000/svg">
<g id="#ffffffff">
<path fill="#ffffff" opacity="1.00" d=" M 0.00 0.00 L 225.00 0.00 L 225.00 225.00 L 0.00 225.00 L 0.00 0.00 M 107.02 60.04 C 103.18 64.09 98.73 67.80 93.34 69.53 C 88.82 71.22 83.95 71.26 79.22 71.90 C 80.95 76.86 84.49 80.99 85.80 86.13 C 97.81 82.99 110.35 82.98 122.68 83.42 C 127.83 83.98 133.08 84.34 138.04 85.98 C 139.60 80.29 144.75 76.74 147.64 71.79 C 141.46 71.33 135.10 70.53 129.72 67.21 C 124.53 64.49 120.94 59.55 115.76 56.84 C 112.47 55.26 109.24 57.80 107.02 60.04 M 86.44 87.88 C 101.95 97.91 122.18 95.41 138.20 87.95 C 121.27 83.81 103.43 84.36 86.44 87.88 M 89.94 104.84 C 92.91 114.14 102.11 121.26 111.97 121.20 C 119.84 121.59 127.59 117.40 131.99 110.94 C 136.06 105.37 136.93 98.04 135.53 91.40 C 120.99 97.36 103.68 99.27 89.37 91.62 C 88.63 96.00 88.56 100.57 89.94 104.84 M 78.03 122.10 C 73.12 127.12 71.09 134.18 69.92 140.93 C 69.22 147.08 68.05 153.53 70.16 159.53 C 72.41 165.40 78.84 168.73 84.92 168.61 C 103.29 168.62 121.65 168.63 140.02 168.61 C 144.81 168.59 149.82 166.79 152.84 162.92 C 156.20 158.78 156.27 153.07 155.86 148.01 C 155.19 139.27 153.57 129.97 147.81 123.03 C 144.56 119.01 139.32 117.43 134.33 117.21 C 127.91 121.47 121.03 125.83 113.04 125.88 C 104.65 126.35 97.43 121.49 90.66 117.22 C 86.08 117.44 81.31 118.69 78.03 122.10 Z" />
<path fill="#ffffff" opacity="1.00" d=" M 107.24 68.00 C 111.47 68.00 115.69 68.00 119.91 68.00 C 119.84 70.47 120.19 73.00 119.57 75.41 C 118.31 77.88 115.69 79.16 113.49 80.65 C 111.15 79.36 108.76 77.83 107.41 75.44 C 107.03 72.98 107.29 70.48 107.24 68.00 Z" />
<path fill="#ffffff" opacity="1.00" d=" M 121.50 137.35 C 125.25 137.35 128.99 137.36 132.74 137.34 C 132.69 139.73 133.06 142.19 132.47 144.54 C 131.17 146.43 128.97 147.40 127.18 148.76 C 125.01 147.35 122.23 146.03 121.58 143.27 C 121.42 141.30 121.50 139.32 121.50 137.35 Z" />
</g>
<g id="#000000ff">
<path fill="#000000" opacity="1.00" d=" M 107.02 60.04 C 109.24 57.80 112.47 55.26 115.76 56.84 C 120.94 59.55 124.53 64.49 129.72 67.21 C 135.10 70.53 141.46 71.33 147.64 71.79 C 144.75 76.74 139.60 80.29 138.04 85.98 C 133.08 84.34 127.83 83.98 122.68 83.42 C 110.35 82.98 97.81 82.99 85.80 86.13 C 84.49 80.99 80.95 76.86 79.22 71.90 C 83.95 71.26 88.82 71.22 93.34 69.53 C 98.73 67.80 103.18 64.09 107.02 60.04 M 107.24 68.00 C 107.29 70.48 107.03 72.98 107.41 75.44 C 108.76 77.83 111.15 79.36 113.49 80.65 C 115.69 79.16 118.31 77.88 119.57 75.41 C 120.19 73.00 119.84 70.47 119.91 68.00 C 115.69 68.00 111.47 68.00 107.24 68.00 Z" />
<path fill="#000000" opacity="1.00" d=" M 86.44 87.88 C 103.43 84.36 121.27 83.81 138.20 87.95 C 122.18 95.41 101.95 97.91 86.44 87.88 Z" />
<path fill="#000000" opacity="1.00" d=" M 89.94 104.84 C 88.56 100.57 88.63 96.00 89.37 91.62 C 103.68 99.27 120.99 97.36 135.53 91.40 C 136.93 98.04 136.06 105.37 131.99 110.94 C 127.59 117.40 119.84 121.59 111.97 121.20 C 102.11 121.26 92.91 114.14 89.94 104.84 Z" />
<path fill="#000000" opacity="1.00" d=" M 78.03 122.10 C 81.31 118.69 86.08 117.44 90.66 117.22 C 97.43 121.49 104.65 126.35 113.04 125.88 C 121.03 125.83 127.91 121.47 134.33 117.21 C 139.32 117.43 144.56 119.01 147.81 123.03 C 153.57 129.97 155.19 139.27 155.86 148.01 C 156.27 153.07 156.20 158.78 152.84 162.92 C 149.82 166.79 144.81 168.59 140.02 168.61 C 121.65 168.63 103.29 168.62 84.92 168.61 C 78.84 168.73 72.41 165.40 70.16 159.53 C 68.05 153.53 69.22 147.08 69.92 140.93 C 71.09 134.18 73.12 127.12 78.03 122.10 M 121.50 137.35 C 121.50 139.32 121.42 141.30 121.58 143.27 C 122.23 146.03 125.01 147.35 127.18 148.76 C 128.97 147.40 131.17 146.43 132.47 144.54 C 133.06 142.19 132.69 139.73 132.74 137.34 C 128.99 137.36 125.25 137.35 121.50 137.35 Z" />
</g>
</svg>
