<?xml version="1.0" encoding="UTF-8"?>
<svg width="88px" height="95px" viewBox="0 0 88 95" version="1.1" xmlns="http://www.w3.org/2000/svg" xmlns:xlink="http://www.w3.org/1999/xlink">
    <!-- Generator: Sketch 58 (84663) - https://sketch.com -->
    <title>Group 2</title>
    <desc>Created with Sketch.</desc>
    <g id="Page-1" stroke="none" stroke-width="1" fill="none" fill-rule="evenodd">
        <g id="Group-2" transform="translate(0.180000, 0.108891)" fill-rule="nonzero">
            <path d="M31.85,32.2711095 C37.28,31.0011095 41.89,27.2011095 44.03,22.0311095 C44.96,24.7111095 46.13,27.5011095 48.49,29.2511095 C50.99,31.3011095 54.36,31.3311095 57.28,32.3811095 C58.28,34.4011095 57.43,36.7811095 55.51,37.8711095 C54.31,41.8011095 53,46.1411095 49.5,48.6711095 C46.36,50.9811095 41.75,50.5411095 38.83,48.0711095 C35.6,45.4211095 34.12,41.3911095 32.72,37.6011095 C30.36,37.2111095 29.02,32.7111095 31.85,32.2711095 Z" id="Path" fill="#FFFFFF"></path>
            <path d="M34.79,4.67110945 C38.24,-1.42889055 47.79,-1.61889055 51.34,4.48110945 C53.53,4.91110945 56.25,5.00110945 57.53,7.18110945 C59.06,9.15110945 57.72,11.5911095 57.38,13.7311095 C53.34,10.2411095 48.16,7.88110945 42.74,8.08110945 C37.63,8.06110945 32.88,10.4011095 28.91,13.4711095 C28.44,12.2211095 27.96,10.9711095 27.47,9.73110945 C28.12,6.23110945 31.46,4.52110945 34.79,4.67110945 Z" id="Path" fill="#080911"></path>
            <path d="M29.43,16.6111095 C36.22,7.98110945 50.89,8.79110945 57.73,16.9411095 C60.51,20.2211095 60.88,24.6611095 60.98,28.7711095 C63.64,32.5111095 62.95,37.5711095 59.96,40.9011095 C59.37,46.2411095 62.2,50.9811095 65.75,54.6911095 C61.2,55.6611095 55.98,56.3411095 52.08,53.2011095 C47.17,56.1811095 40.91,55.7011095 36.21,52.5311095 C32.43,56.3111095 26.68,55.9311095 21.94,54.5411095 C24.97,51.3411095 27.76,47.4211095 27.69,42.8211095 C28.02,39.5911095 24.89,37.1511095 25.4,33.9011095 C26.32,28.0811095 25.56,21.5311095 29.43,16.6111095 M31.85,32.2711095 C29.02,32.7111095 30.36,37.2111095 32.72,37.6011095 C34.12,41.3911095 35.6,45.4211095 38.83,48.0711095 C41.75,50.5411095 46.36,50.9811095 49.5,48.6711095 C53,46.1411095 54.31,41.8011095 55.51,37.8711095 C57.43,36.7811095 58.28,34.4011095 57.28,32.3811095 C54.36,31.3311095 50.99,31.3011095 48.49,29.2511095 C46.13,27.5011095 44.96,24.7111095 44.03,22.0311095 C41.89,27.2011095 37.28,31.0011095 31.85,32.2711095 Z" id="Shape" fill="#080911"></path>
            <path d="M32.02,57.6811095 C35.61,57.6911095 36.34,62.1511095 39.55,63.1211095 C44.62,65.6111095 50.88,63.2011095 53.1,58.0611095 C54.26,58.0211095 55.42,57.9811095 56.59,57.9611095 C56.62,64.7911095 56.63,71.6211095 56.59,78.4511095 C48.38,78.4011095 40.17,78.4211095 31.96,78.4411095 C31.92,71.5211095 31.83,64.6011095 32.02,57.6811095 Z" id="Path" fill="#080911"></path>
            <path d="M17.58,63.6511095 C19.27,60.3611095 23.39,60.4511095 26.37,59.0611095 C26.49,65.6311095 26.11,72.2211095 26.55,78.7811095 C27.97,83.9711095 29.79,89.0511095 31.32,94.2111095 C29.33,94.1911095 27.34,94.1911095 25.35,94.2011095 C24.04,90.2211095 22.74,86.2311095 21.53,82.2211095 C19.32,86.2111095 17.08,90.2011095 14.87,94.2011095 C9.92,94.1811095 4.96,94.2011095 0,94.2011095 C5.87,84.0211095 11.66,73.7911095 17.58,63.6511095 Z" id="Path" fill="#080911"></path>
            <path d="M61.95,78.8811095 C62.4,72.3811095 61.97,65.8411095 62.18,59.3211095 C64.96,60.4811095 68.69,60.7111095 70.12,63.8311095 C76,73.9111095 81.66,84.1211095 87.56,94.1911095 C82.69,94.0111095 77.73,94.5611095 72.92,93.9411095 C70.55,90.3511095 68.64,86.4911095 66.38,82.8411095 C65.05,86.6111095 63.79,90.4111095 62.51,94.2011095 C60.96,94.1911095 59.42,94.1911095 57.88,94.2011095 C59.16,89.0811095 60.75,84.0311095 61.95,78.8811095 Z" id="Path" fill="#080911"></path>
        </g>
    </g>
</svg>