<?xml version="1.0" encoding="UTF-8" ?>
<!DOCTYPE svg PUBLIC "-//W3C//DTD SVG 1.1//EN" "http://www.w3.org/Graphics/SVG/1.1/DTD/svg11.dtd">
<svg width="225pt" height="225pt" viewBox="0 0 225 225" version="1.1" xmlns="http://www.w3.org/2000/svg">
<g id="#ffffffff">
</g>
<g id="#000000ff">
<path fill="#000000" opacity="1.00" d=" M 1.41 75.33 C 2.91 73.88 5.68 74.29 6.29 76.41 C 10.52 87.08 14.58 97.83 18.72 108.54 C 27.37 108.50 36.02 108.53 44.67 108.53 C 44.65 110.78 44.64 113.04 44.61 115.30 C 43.20 115.09 41.79 114.88 40.38 114.67 C 39.97 115.97 39.90 117.34 39.77 118.70 L 38.16 118.53 C 40.35 127.66 42.46 136.82 44.55 145.98 C 45.31 147.64 44.25 148.81 42.99 149.78 C 40.37 139.38 38.16 128.89 35.62 118.47 C 28.56 118.53 21.49 118.51 14.43 118.48 C 11.96 128.79 9.64 139.13 7.19 149.44 C 6.66 149.11 5.60 148.43 5.07 148.10 C 7.18 138.19 9.61 128.34 11.88 118.47 C 11.53 118.50 10.83 118.58 10.48 118.61 C 10.49 117.74 10.53 116.01 10.55 115.14 C 8.74 115.16 6.93 115.18 5.12 115.18 C 5.13 112.94 5.13 110.71 5.11 108.47 C 7.61 108.52 10.10 108.53 12.59 108.56 C 9.17 100.47 6.25 92.17 2.97 84.02 C 1.90 81.28 0.45 78.32 1.41 75.33 Z" />
<path fill="#000000" opacity="1.00" d=" M 205.96 109.96 C 211.20 98.77 214.51 86.74 219.92 75.61 C 222.42 75.64 224.14 77.00 225.00 79.32 L 225.00 80.11 L 224.58 80.08 C 223.59 81.41 222.92 82.94 222.32 84.47 C 219.09 92.95 215.90 101.43 212.51 109.84 C 214.97 109.83 217.43 109.83 219.89 109.85 C 219.87 112.06 219.86 114.28 219.87 116.50 C 218.22 116.49 216.57 116.48 214.93 116.46 C 214.37 117.93 213.89 119.43 213.39 120.93 C 215.42 130.67 218.27 140.25 219.82 150.08 C 219.30 150.20 218.24 150.44 217.72 150.56 C 215.33 140.30 213.01 130.03 210.55 119.79 C 203.50 119.85 196.46 119.85 189.42 119.79 C 186.89 130.11 184.63 140.48 182.15 150.81 C 181.63 150.48 180.59 149.82 180.07 149.48 C 181.96 139.95 184.44 130.54 186.52 121.05 C 185.44 119.74 185.07 118.10 184.74 116.48 C 183.29 116.48 181.84 116.50 180.39 116.50 C 180.36 114.37 180.34 112.23 180.31 110.10 C 188.85 109.42 197.43 110.12 205.96 109.96 Z" />
<path fill="#000000" opacity="1.00" d=" M 56.39 91.16 C 57.19 90.74 58.05 90.54 58.96 90.58 C 94.32 90.56 129.69 90.61 165.05 90.55 C 166.57 90.51 168.05 90.80 169.51 91.17 C 169.55 94.19 169.88 97.27 169.24 100.25 C 164.62 100.91 159.92 100.44 155.27 100.52 C 154.96 102.08 155.73 104.10 154.35 105.27 C 152.99 105.42 151.63 105.51 150.27 105.53 C 156.89 119.27 162.85 133.32 169.39 147.10 C 169.36 147.45 169.30 148.15 169.27 148.50 C 167.19 149.24 165.04 149.72 162.85 149.94 C 155.84 135.20 149.31 120.23 142.47 105.41 C 122.56 105.43 102.66 105.44 82.76 105.41 C 76.02 120.16 69.54 135.06 62.51 149.66 C 60.07 150.17 57.78 149.00 55.57 148.16 C 61.89 133.88 68.40 119.68 74.95 105.50 C 73.08 105.27 71.00 105.81 69.27 104.89 C 69.18 103.43 69.13 101.98 69.12 100.52 C 64.89 100.56 60.65 100.64 56.42 100.44 C 56.18 97.36 55.99 94.24 56.39 91.16 Z" />
</g>
</svg>
