<?xml version="1.0" encoding="UTF-8" ?>
<!DOCTYPE svg PUBLIC "-//W3C//DTD SVG 1.1//EN" "http://www.w3.org/Graphics/SVG/1.1/DTD/svg11.dtd">
<svg width="256pt" height="256pt" viewBox="0 0 256 256" version="1.1" xmlns="http://www.w3.org/2000/svg">
<g id="#010101ff">
<path fill="#010101" opacity="1.00" d=" M 9.58 37.72 C 88.52 37.68 167.46 37.70 246.41 37.71 C 246.42 43.76 246.42 49.81 246.45 55.87 C 240.23 55.87 234.01 55.85 227.79 55.87 C 227.77 110.00 227.80 164.13 227.78 218.25 C 221.19 218.38 214.61 218.23 208.02 218.27 C 207.93 164.14 208.00 110.00 207.99 55.87 C 154.11 55.86 100.23 55.86 46.35 55.87 C 46.33 110.00 46.39 164.13 46.32 218.26 C 39.74 218.36 33.16 218.24 26.58 218.26 C 26.53 164.14 26.57 110.02 26.56 55.90 C 20.90 55.83 15.24 55.87 9.58 55.86 C 9.49 49.81 9.59 43.77 9.58 37.72 Z" />
<path fill="#010101" opacity="1.00" d=" M 55.28 63.59 C 103.73 63.55 152.19 63.59 200.65 63.57 C 200.67 66.66 200.68 69.74 200.67 72.82 C 152.22 72.84 103.78 72.84 55.33 72.82 C 55.34 69.74 55.32 66.67 55.28 63.59 Z" />
<path fill="#010101" opacity="1.00" d=" M 55.34 80.44 C 103.78 80.40 152.23 80.48 200.68 80.40 C 200.68 83.50 200.67 86.59 200.67 89.68 C 152.22 89.70 103.78 89.69 55.34 89.68 C 55.30 86.60 55.30 83.52 55.34 80.44 Z" />
<path fill="#010101" opacity="1.00" d=" M 55.34 97.32 C 103.79 97.29 152.24 97.32 200.69 97.31 C 200.69 100.39 200.68 103.47 200.66 106.55 C 152.21 106.59 103.76 106.55 55.31 106.57 C 55.31 103.49 55.32 100.40 55.34 97.32 Z" />
<path fill="#010101" opacity="1.00" d=" M 97.74 125.72 C 98.61 124.21 100.13 122.96 101.98 123.04 C 119.01 122.92 136.04 123.01 153.07 123.00 C 154.85 122.90 156.85 123.40 157.78 125.06 C 164.83 135.57 171.60 146.28 178.73 156.73 C 184.60 156.10 190.86 160.76 190.61 166.95 C 190.60 178.13 190.63 189.31 190.60 200.49 C 185.58 200.48 180.57 200.54 175.56 200.51 C 175.33 204.62 176.15 208.90 174.94 212.89 C 172.64 218.85 163.69 220.14 159.69 215.22 C 156.22 211.14 158.11 205.36 157.57 200.50 C 137.85 200.53 118.13 200.47 98.41 200.52 C 98.14 204.59 98.88 208.80 97.80 212.77 C 95.59 218.76 86.76 220.12 82.62 215.40 C 78.99 211.32 80.94 205.45 80.42 200.54 C 75.41 200.48 70.40 200.50 65.39 200.49 C 65.39 188.99 65.28 177.47 65.44 165.97 C 65.71 159.98 71.94 156.33 77.47 156.59 C 84.20 146.29 90.99 136.02 97.74 125.72 M 104.94 131.84 C 99.40 140.09 93.99 148.42 88.50 156.71 C 114.82 156.72 141.14 156.71 167.46 156.72 C 162.04 148.43 156.60 140.15 151.15 131.89 C 135.75 131.84 120.34 131.94 104.94 131.84 M 85.37 164.55 C 81.13 166.04 78.00 170.44 78.50 174.99 C 78.99 180.54 84.50 184.75 89.96 184.31 C 96.05 184.25 101.63 178.18 100.10 172.03 C 98.82 165.71 91.20 162.19 85.37 164.55 M 162.40 164.61 C 158.24 166.16 155.17 170.52 155.70 175.02 C 156.15 180.51 161.62 184.66 166.99 184.32 C 172.81 184.33 178.28 178.97 177.45 173.00 C 176.77 166.13 168.57 161.94 162.40 164.61 Z" />
</g>
</svg>
