<?xml version="1.0" encoding="UTF-8"?>
<svg width="68px" height="94px" viewBox="0 0 68 94" version="1.1" xmlns="http://www.w3.org/2000/svg" xmlns:xlink="http://www.w3.org/1999/xlink">
    <!-- Generator: Sketch 58 (84663) - https://sketch.com -->
    <title>Group</title>
    <desc>Created with Sketch.</desc>
    <g id="Page-1" stroke="none" stroke-width="1" fill="none" fill-rule="evenodd">
        <g id="Group" transform="translate(0.172631, 0.875454)" fill-rule="nonzero">
            <path d="M52.8773694,6.35454633 C54.2973694,5.15454633 56.2173694,5.71454633 57.9073694,5.71454633 C55.9573694,8.13454633 53.8673694,10.5145463 51.2373694,12.2245463 C51.2473694,10.2145463 50.9373694,7.65454633 52.8773694,6.35454633 Z" id="Path" fill="#FFFFFF"></path>
            <path d="M8.16736938,6.41454633 C9.74736938,5.85454633 12.0373694,6.21454633 12.2873694,8.22454633 C13.1073694,10.2545463 11.0373694,12.7145463 8.87736938,12.0145463 C6.18736938,11.6045463 5.94736938,7.69454633 8.16736938,6.41454633 Z" id="Path" fill="#FFFFFF"></path>
            <path d="M18.4073694,6.59454633 C19.8073694,4.98454633 22.6573694,5.27454633 23.7273694,7.11454633 C25.1573694,9.27454633 23.5973694,12.7945463 20.8573694,12.7145463 C17.7273694,12.9645463 16.2373694,8.59454633 18.4073694,6.59454633 Z" id="Path" fill="#FFFFFF"></path>
            <path d="M30.3473694,6.60454633 C32.3373694,4.31454633 36.6573694,6.06454633 36.2673694,9.13454633 C36.4873694,11.8245463 32.9873694,13.8145463 30.8573694,12.0845463 C29.0473694,10.9345463 29.0273694,8.13454633 30.3473694,6.60454633 Z" id="Path" fill="#FFFFFF"></path>
            <path d="M41.1473694,6.27454633 C43.0773694,4.78454633 46.3573694,5.64454633 46.9873694,8.11454633 C48.1673694,11.0845463 44.9173694,14.5845463 41.9073694,13.2145463 C39.0373694,12.2345463 38.8073694,7.96454633 41.1473694,6.27454633 Z" id="Path" fill="#FFFFFF"></path>
            <path d="M59.3673694,7.44454633 C59.4373694,9.25454633 59.9573694,11.3945463 58.5273694,12.8445463 C57.1573694,14.5745463 54.7973694,14.2345463 52.8973694,13.9645463 C54.9673694,11.7145463 57.1373694,9.54454633 59.3673694,7.44454633 Z" id="Path" fill="#FFFFFF"></path>
            <path d="M5.69736938,28.3245463 C24.2973694,28.3845463 42.8973694,28.3945463 61.4973694,28.3245463 C61.4873694,45.7545463 61.5473694,63.1845463 61.4673694,80.6245463 C42.8673694,80.5445463 24.2773694,80.6145463 5.67736938,80.5845463 C5.68736938,63.1645463 5.64736938,45.7445463 5.69736938,28.3245463 M28.2873694,34.7945463 C20.6373694,36.9145463 14.6873694,44.0745463 14.0773694,52.0145463 C13.3473694,59.1145463 16.8273694,66.4545463 22.8273694,70.3445463 C28.9173694,74.5345463 37.4073694,74.7945463 43.7573694,71.0045463 C49.0473694,67.9645463 52.8173694,62.3845463 53.4973694,56.3145463 C54.3473694,50.1345463 51.9673694,43.6545463 47.3973694,39.4345463 C42.4473694,34.6445463 34.8873694,32.7245463 28.2873694,34.7945463 Z" id="Shape" fill="#FFFFFF"></path>
            <path d="M29.2073694,40.6245463 C36.8573694,37.6845463 46.1073694,42.9945463 47.5173694,51.0245463 C49.2873694,58.5845463 43.5873694,66.7545463 35.8873694,67.6845463 C28.2773694,69.0645463 20.4273694,62.9145463 19.9273694,55.2145463 C19.1473694,48.9445463 23.2573694,42.6245463 29.2073694,40.6245463 M27.4173694,55.3445463 C25.8673694,57.1845463 23.6473694,57.0445463 21.5973694,56.2845463 C23.8173694,61.9245463 29.6573694,66.4145463 35.9173694,65.1145463 C40.7273694,64.4145463 44.1573694,60.5245463 46.0373694,56.2745463 C43.9173694,57.1945463 41.7273694,57.0445463 40.1873694,55.1845463 C39.1173694,55.9445463 38.2873694,57.6245463 36.7373694,57.2645463 C35.7373694,56.8145463 34.8473694,56.1945463 33.8973694,55.6845463 C32.8573694,56.3245463 31.9973694,57.2745463 30.8173694,57.6645463 C29.3473694,57.4745463 28.3873694,56.3145463 27.4173694,55.3445463 Z" id="Shape" fill="#FFFFFF"></path>
            <path d="M0.127369382,3.99454633 C0.257369382,1.69454633 2.47736938,-0.085453667 4.74736938,0.054546333 C23.7773694,-0.015453667 42.8073694,0.034546333 61.8373694,0.024546333 C64.2873694,-0.225453667 67.0873694,1.45454633 67.0773694,4.13454633 C67.2473694,8.59454633 67.0773694,13.0545463 67.1373694,17.5145463 C44.7973694,17.5345463 22.4573694,17.4545463 0.117369382,17.5545463 C0.0473693824,13.0345463 -0.112630618,8.51454633 0.127369382,3.99454633 M52.8773694,6.35454633 C50.9373694,7.65454633 51.2473694,10.2145463 51.2373694,12.2245463 C53.8673694,10.5145463 55.9573694,8.13454633 57.9073694,5.71454633 C56.2173694,5.71454633 54.2973694,5.15454633 52.8773694,6.35454633 M8.16736938,6.41454633 C5.94736938,7.69454633 6.18736938,11.6045463 8.87736938,12.0145463 C11.0373694,12.7145463 13.1073694,10.2545463 12.2873694,8.22454633 C12.0373694,6.21454633 9.74736938,5.85454633 8.16736938,6.41454633 M18.4073694,6.59454633 C16.2373694,8.59454633 17.7273694,12.9645463 20.8573694,12.7145463 C23.5973694,12.7945463 25.1573694,9.27454633 23.7273694,7.11454633 C22.6573694,5.27454633 19.8073694,4.98454633 18.4073694,6.59454633 M30.3473694,6.60454633 C29.0273694,8.13454633 29.0473694,10.9345463 30.8573694,12.0845463 C32.9873694,13.8145463 36.4873694,11.8245463 36.2673694,9.13454633 C36.6573694,6.06454633 32.3373694,4.31454633 30.3473694,6.60454633 M41.1473694,6.27454633 C38.8073694,7.96454633 39.0373694,12.2345463 41.9073694,13.2145463 C44.9173694,14.5845463 48.1673694,11.0845463 46.9873694,8.11454633 C46.3573694,5.64454633 43.0773694,4.78454633 41.1473694,6.27454633 M59.3673694,7.44454633 C57.1373694,9.54454633 54.9673694,11.7145463 52.8973694,13.9645463 C54.7973694,14.2345463 57.1573694,14.5745463 58.5273694,12.8445463 C59.9573694,11.3945463 59.4373694,9.25454633 59.3673694,7.44454633 Z" id="Shape" fill="#080911"></path>
            <path d="M0.0373693824,22.7345463 C22.4073694,22.7345463 44.7773694,22.7545463 67.1373694,22.7245463 C67.1073694,43.8945463 67.1473694,65.0645463 67.1173694,86.2245463 C66.2973694,86.2245463 64.6373694,86.2345463 63.8173694,86.2345463 C62.7373694,88.2945463 61.6673694,90.3545463 60.6273694,92.4345463 C42.2873694,92.4945463 23.9473694,92.4445463 5.60736938,92.4645463 C4.56736938,90.4645463 3.52736938,88.4645463 2.52736938,86.4445463 C1.90736938,86.3245463 0.647369382,86.0945463 0.0273693824,85.9745463 C0.0473693824,64.8945463 0.0173693824,43.8145463 0.0373693824,22.7345463 M5.69736938,28.3245463 C5.64736938,45.7445463 5.68736938,63.1645463 5.67736938,80.5845463 C24.2773694,80.6145463 42.8673694,80.5445463 61.4673694,80.6245463 C61.5473694,63.1845463 61.4873694,45.7545463 61.4973694,28.3245463 C42.8973694,28.3945463 24.2973694,28.3845463 5.69736938,28.3245463 Z" id="Shape" fill="#080911"></path>
            <path d="M28.2873694,34.7945463 C34.8873694,32.7245463 42.4473694,34.6445463 47.3973694,39.4345463 C51.9673694,43.6545463 54.3473694,50.1345463 53.4973694,56.3145463 C52.8173694,62.3845463 49.0473694,67.9645463 43.7573694,71.0045463 C37.4073694,74.7945463 28.9173694,74.5345463 22.8273694,70.3445463 C16.8273694,66.4545463 13.3473694,59.1145463 14.0773694,52.0145463 C14.6873694,44.0745463 20.6373694,36.9145463 28.2873694,34.7945463 M29.2073694,40.6245463 C23.2573694,42.6245463 19.1473694,48.9445463 19.9273694,55.2145463 C20.4273694,62.9145463 28.2773694,69.0645463 35.8873694,67.6845463 C43.5873694,66.7545463 49.2873694,58.5845463 47.5173694,51.0245463 C46.1073694,42.9945463 36.8573694,37.6845463 29.2073694,40.6245463 Z" id="Shape" fill="#080911"></path>
            <path d="M27.4173694,55.3445463 C28.3873694,56.3145463 29.3473694,57.4745463 30.8173694,57.6645463 C31.9973694,57.2745463 32.8573694,56.3245463 33.8973694,55.6845463 C34.8473694,56.1945463 35.7373694,56.8145463 36.7373694,57.2645463 C38.2873694,57.6245463 39.1173694,55.9445463 40.1873694,55.1845463 C41.7273694,57.0445463 43.9173694,57.1945463 46.0373694,56.2745463 C44.1573694,60.5245463 40.7273694,64.4145463 35.9173694,65.1145463 C29.6573694,66.4145463 23.8173694,61.9245463 21.5973694,56.2845463 C23.6473694,57.0445463 25.8673694,57.1845463 27.4173694,55.3445463 Z" id="Path" fill="#080911"></path>
        </g>
    </g>
</svg>