<?xml version="1.0" encoding="UTF-8"?>
<svg width="99px" height="121px" viewBox="0 0 99 121" version="1.1" xmlns="http://www.w3.org/2000/svg" xmlns:xlink="http://www.w3.org/1999/xlink">
    <!-- Generator: Sketch 58 (84663) - https://sketch.com -->
    <title>Group</title>
    <desc>Created with Sketch.</desc>
    <g id="Page-1" stroke="none" stroke-width="1" fill="none" fill-rule="evenodd">
        <g id="Group" transform="translate(0.004761, 0.433275)">
            <path d="M45.165239,6.0867246 C48.145239,3.6667246 50.645239,-0.233275398 55.085239,0.0467246016 C61.025239,-0.573275398 64.225239,5.1267246 68.365239,8.2567246 C69.985239,10.9067246 71.335239,13.7967246 72.715239,16.5967246 C74.145239,21.6567246 69.345239,24.7467246 67.155239,28.5767246 C65.135239,32.3267246 61.0663085,35.9467246 56.7263085,35.7867246 C56.5263085,35.4467246 56.085239,34.1567246 55.895239,33.8167246 C58.445239,30.8867246 61.665239,28.5667246 63.905239,25.3767246 C65.595239,22.5167246 63.235239,19.4767246 62.445239,16.6867246 C64.375239,17.9467246 66.265239,19.2867246 68.215239,20.5267246 C68.215239,18.4367246 67.485239,16.5267246 66.175239,14.9367246 C65.585239,13.2167246 65.245239,11.2167246 63.405239,10.3967246 C60.495239,9.0667246 59.635239,4.7167246 56.015239,4.8367246 C52.995239,4.3367246 50.925239,6.8767246 49.505239,9.1367246 C48.135239,8.0167246 46.675239,7.0167246 45.165239,6.0867246 Z" id="Path" fill="#040404" fill-rule="nonzero"></path>
            <path d="M13.295239,5.2167246 C15.125239,2.1467246 19.485239,2.2667246 21.075239,5.4967246 C21.585239,5.0667246 22.585239,4.1967246 23.085239,3.7567246 C24.525239,4.3167246 25.765239,5.2167246 26.855239,6.2967246 C23.195239,12.4267246 16.685239,16.1667246 12.625239,21.9867246 C11.065239,24.3367246 12.545239,27.0267246 13.165239,29.4367246 C10.545239,29.0267246 12.055239,25.9067246 11.665239,24.1867246 C8.02523903,20.4367246 4.02523903,17.0267246 0.505239034,13.1667246 C-0.904760966,10.8567246 0.815239034,8.1867246 3.45523903,8.2367246 C3.94523903,6.9267246 4.71523903,5.7467246 5.82523903,4.8667246 C6.51523903,5.2967246 7.21523903,5.7167246 7.91523903,6.1367246 C9.18523903,3.8767246 11.345239,3.6467246 13.295239,5.2167246 Z" id="Path" fill="#010101" fill-rule="nonzero"></path>
            <path d="M38.485239,15.9667246 C40.935239,12.7967246 41.485239,8.2667246 45.165239,6.0867246 C46.675239,7.0167246 48.135239,8.0167246 49.505239,9.1367246 C46.775239,10.1367246 45.325239,12.4567246 45.305239,15.3067246 C44.835239,15.5567246 43.885239,16.0467246 43.415239,16.2967246 C43.365239,17.7367246 43.325239,19.1767246 43.315239,20.6267246 C46.865239,17.3267246 51.345239,14.8767246 56.365239,15.3267246 C58.125239,17.5167246 60.175239,19.4767246 61.725239,21.8367246 C62.805239,24.4667246 59.635239,26.1367246 58.215239,27.8667246 C53.795239,27.1167246 49.465239,28.2067246 46.095239,31.1767246 C45.305239,29.8167246 44.455239,28.4967246 43.625239,27.1667246 C45.615239,22.4767246 40.965239,19.2467246 38.485239,15.9667246 Z" id="Path" fill="#010101" fill-rule="nonzero"></path>
            <path d="M50.235239,39.3067246 C55.185239,39.4767246 60.135239,39.3467246 65.095239,39.3967246 C74.655239,47.5467246 84.245239,55.6767246 93.855239,63.7767246 C95.625239,65.1767246 97.315239,66.6967246 98.775239,68.4367246 C96.725239,71.1167246 94.535239,73.6967246 92.135239,76.0667246 C91.595239,76.5667246 90.875239,77.2667246 90.175239,76.5567246 C84.965239,72.5867246 80.435239,67.8267246 75.365239,63.6967246 C76.145239,66.2167246 76.885239,68.7367246 77.625239,71.2667246 C57.8519057,71.0800579 43.505239,71.0067246 34.585239,71.0467246 C35.885239,67.0567246 37.275239,63.0767246 38.155239,58.9567246 C34.775239,60.4367246 31.655239,63.7567246 27.995239,63.7167246 C24.905239,59.2067246 22.555239,54.1767246 19.695239,49.4967246 C19.635239,50.9767246 19.355239,52.8967246 17.535239,53.1367246 C16.155239,53.5667246 14.615239,52.0167246 14.795239,50.6367246 C14.515239,47.2767246 14.775239,43.9067246 15.145239,40.5767246 C19.655239,45.0267246 23.945239,49.6967246 28.605239,53.9867246 C30.635239,55.9967246 34.165239,55.6467246 36.055239,53.6067246 C40.865239,48.9267246 45.575239,44.1367246 50.235239,39.3067246 Z" id="Path" fill="#010101" fill-rule="nonzero"></path>
            <path d="M33.155239,77.9267246 C36.865239,77.9567246 40.575239,77.9567246 44.295239,77.9267246 C44.785239,82.4867246 47.575239,86.7667246 51.975239,88.3567246 C55.885239,89.5067246 60.615239,89.2367246 63.685239,86.2867246 C66.375239,84.3167246 67.325239,80.9967246 68.155239,77.9367246 C71.875239,77.9467246 75.595239,77.9367246 79.315239,77.9667246 C80.705239,83.9767246 83.405239,89.6367246 84.335239,95.7467246 C80.905239,95.8767246 77.475239,95.8367246 74.055239,95.8367246 C72.695239,103.066725 71.605239,110.336725 70.025239,117.526725 C69.685239,118.676725 69.545239,120.336725 67.965239,120.326725 C60.635239,120.586725 53.285239,120.366725 45.935239,120.436725 C44.655239,120.496725 42.705239,120.316725 42.505239,118.686725 C40.575239,111.266725 39.895239,103.586725 38.215239,96.1067246 C34.985239,95.3367246 31.465239,96.2967246 28.175239,95.5867246 C28.525239,89.5067246 31.535239,83.7967246 33.155239,77.9267246 Z" id="Path" fill="#010101" fill-rule="nonzero"></path>
            <path d="M27.425239,5.0967246 C29.425239,4.7567246 30.045239,6.7267246 30.815239,8.1567246 C27.055239,9.9067246 24.545239,13.3167246 21.615239,16.1067246 C19.265239,18.5367246 16.535239,20.6867246 14.795239,23.6267246 C14.375239,25.6067246 15.775239,27.4367246 16.205239,29.3367246 C17.305239,31.9667246 15.365239,34.7467246 15.965239,37.4167246 C18.105239,40.6167246 21.215239,42.9967246 23.845239,45.7867246 C26.445239,48.2767246 28.685239,51.2767246 31.925239,52.9867246 C35.625239,51.9667246 37.665239,48.3967246 37.255239,44.6767246 C41.445239,42.6067246 45.375239,39.4067246 50.235239,39.3067246 C45.575239,44.1367246 40.865239,48.9267246 36.055239,53.6067246 C34.165239,55.6467246 30.635239,55.9967246 28.605239,53.9867246 C23.945239,49.6967246 19.655239,45.0267246 15.145239,40.5767246 C14.775239,43.9067246 14.515239,47.2767246 14.795239,50.6367246 C13.715239,43.6067246 14.865239,36.3467246 13.165239,29.4367246 C12.545239,27.0267246 11.065239,24.3367246 12.625239,21.9867246 C16.685239,16.1667246 23.195239,12.4267246 26.855239,6.2967246 L27.425239,5.0967246 Z" id="Path" fill="#000000" fill-rule="nonzero"></path>
            <path d="M49.505239,9.1367246 C50.925239,6.8767246 52.995239,4.3367246 56.015239,4.8367246 C59.635239,4.7167246 60.495239,9.0667246 63.405239,10.3967246 C65.245239,11.2167246 65.585239,13.2167246 66.175239,14.9367246 C67.485239,16.5267246 68.215239,18.4367246 68.215239,20.5267246 C66.265239,19.2867246 64.375239,17.9467246 62.445239,16.6867246 C60.545239,15.7767246 58.435239,15.4867246 56.365239,15.3267246 C51.345239,14.8767246 46.865239,17.3267246 43.315239,20.6267246 C43.325239,19.1767246 43.365239,17.7367246 43.415239,16.2967246 C43.885239,16.0467246 44.835239,15.5567246 45.305239,15.3067246 C45.325239,12.4567246 46.775239,10.1367246 49.505239,9.1367246 Z" id="Path" fill="#FBFBFB" fill-rule="nonzero"></path>
            <path d="M21.615239,16.1067246 C24.545239,13.3167246 27.055239,9.9067246 30.815239,8.1567246 C33.335239,8.0867246 35.245239,11.1067246 33.635239,13.2067246 C30.305239,17.2267246 26.185239,20.5267246 22.515239,24.2367246 C22.555239,25.7267246 22.605239,27.2167246 22.615239,28.7067246 C19.345239,28.8967246 20.555239,32.3367246 20.145239,34.5467246 C20.675239,34.1967246 21.735239,33.5067246 22.265239,33.1667246 C26.505239,37.1267246 28.445239,42.8667246 31.875239,47.4667246 C33.655239,46.5167246 35.445239,45.5667246 37.255239,44.6767246 C37.665239,48.3967246 35.625239,51.9667246 31.925239,52.9867246 C28.685239,51.2767246 26.445239,48.2767246 23.845239,45.7867246 C21.215239,42.9967246 18.105239,40.6167246 15.965239,37.4167246 C15.365239,34.7467246 17.305239,31.9667246 16.205239,29.3367246 C15.775239,27.4367246 14.375239,25.6067246 14.795239,23.6267246 C16.535239,20.6867246 19.265239,18.5367246 21.615239,16.1067246 Z" id="Path" fill="#030303" fill-rule="nonzero"></path>
            <path d="M43.625239,27.1667246 C40.195239,24.5367246 37.445239,20.4967246 38.485239,15.9667246 C40.965239,19.2467246 45.615239,22.4767246 43.625239,27.1667246 Z" id="Path" fill="#000000" fill-rule="nonzero"></path>
            <path d="M56.365239,15.3267246 C58.435239,15.4867246 60.545239,15.7767246 62.445239,16.6867246 C63.235239,19.4767246 65.595239,22.5167246 63.905239,25.3767246 C61.665239,28.5667246 58.445239,30.8867246 55.895239,33.8167246 C56.085239,34.1567246 56.485239,34.8367246 56.685239,35.1767246 L57.045239,35.7867246 C52.975239,35.5067246 49.145239,33.8767246 46.095239,31.1767246 C49.465239,28.2067246 53.795239,27.1167246 58.215239,27.8667246 C59.635239,26.1367246 62.805239,24.4667246 61.725239,21.8367246 C60.175239,19.4767246 58.125239,17.5167246 56.365239,15.3267246 Z" id="Path" fill="#000000" fill-rule="nonzero"></path>
            <circle id="Oval" fill="#000000" cx="55.495239" cy="26.0667246" r="11.5"></circle>
        </g>
    </g>
</svg>